<svg width="513" height="416" viewBox="0 0 513 416" fill="none" xmlns="http://www.w3.org/2000/svg">
<g clip-path="url(#clip0)">
<path opacity="0.2" d="M82.0469 10.0453C78.2114 9.89647 74.2807 10.0453 70.6832 11.5465C60.8945 15.6359 56.2548 29.017 57.7633 40.58C59.2718 52.1429 65.4772 62.2176 71.9157 71.4253C78.3542 80.6329 85.3304 89.737 88.8614 100.744C90.6221 106.237 91.4453 112.391 89.6561 117.878C86.896 126.335 78.5731 131.058 70.5832 132.042C62.5934 133.025 54.5702 131.11 46.5519 130.469C43.1875 130.204 39.7279 130.172 36.5586 131.408C33.08 132.754 30.182 135.504 27.5171 138.37C17.1194 149.616 8.79644 164.958 10.1431 181.076C11.6659 199.342 25.2472 213.778 40.1229 221.524C45.0481 224.112 50.2589 226.169 54.594 229.832C66.0149 239.492 68.5798 257.61 67.4425 273.599C66.3052 289.588 62.4316 305.596 64.5873 321.442C67.1237 339.877 78.3494 356.532 93.4916 364.31C106.982 371.24 123.866 370.781 135.844 361.004C141.683 356.228 146.099 349.596 149.939 342.737C155.641 332.608 160.352 321.515 163.953 309.737C165.624 304.244 167.194 298.336 171.091 294.518C173.471 292.169 176.554 290.856 179.605 289.834C188.799 286.754 198.482 285.912 207.762 283.169C217.041 280.425 226.378 275.294 231.422 266.171C238.56 253.229 235.229 236.652 235.262 221.433C235.319 186.712 253.874 155.634 260.721 121.786C262.958 110.728 263.791 98.4918 258.794 88.6241C255.401 81.9271 249.676 77.0935 243.661 73.36C230.428 65.1488 215.385 61.4929 200.591 57.9341C180.028 52.9906 155.059 52.35 139.123 36.3547C123.828 21 102.904 10.0453 82.0469 10.0453Z" fill="#E1B12C"/>
<path d="M281.721 406C403.93 406 503 369.927 503 325.428C503 280.93 403.93 244.856 281.721 244.856C159.512 244.856 60.4421 280.93 60.4421 325.428C60.4421 369.927 159.512 406 281.721 406Z" fill="#F5F5F5"/>
<path d="M465.492 130.909C465.492 130.909 448.442 154.094 458.068 188.498C467.695 222.902 441.565 280.115 441.565 280.115C441.565 280.115 441.846 280.056 442.365 279.934C477.384 271.522 494.786 217.065 475.314 176.605C468.076 161.567 462.132 143.941 465.492 130.909Z" fill="#F9A826"/>
<path d="M465.492 130.909C465.492 130.909 455.865 159.328 465.492 182.512C475.119 205.696 467.143 270.765 441.565 280.115" stroke="#535461" stroke-width="2" stroke-miterlimit="10"/>
<path d="M495.862 224.688C495.862 224.688 476.404 220.475 474.633 244.184C472.863 267.892 437.221 271.179 437.221 271.179L437.887 271.781C467.315 298.045 495.467 288.514 491.184 253.663C489.628 240.67 489.757 227.645 495.862 224.688Z" fill="#F9A826"/>
<path opacity="0.2" d="M495.862 224.688C495.862 224.688 476.404 220.475 474.633 244.184C472.863 267.892 437.221 271.179 437.221 271.179L437.887 271.781C467.315 298.045 495.467 288.514 491.184 253.663C489.628 240.67 489.757 227.645 495.862 224.688Z" fill="#F5F5F5"/>
<path d="M495.862 224.688C495.862 224.688 480.758 229.217 482 247.865C483.242 266.514 459.572 288.921 437.221 271.159" stroke="#535461" stroke-width="2" stroke-miterlimit="10"/>
<path d="M450.83 281.713H420.261C420.964 279.789 421.329 277.669 421.327 275.521V86.2171C421.327 82.5257 420.248 78.9856 418.329 76.3754C416.409 73.7652 413.805 72.2988 411.091 72.2988H174.422C173.078 72.298 171.746 72.6574 170.504 73.3564C169.261 74.0555 168.132 75.0806 167.181 76.3731C166.23 77.6656 165.476 79.2002 164.961 80.8893C164.446 82.5784 164.181 84.3888 164.181 86.2171V275.527C164.179 277.676 164.544 279.796 165.247 281.719H133.597C132.879 281.719 132.191 282.107 131.683 282.798C131.175 283.488 130.89 284.425 130.89 285.401V288.371C130.893 293.828 132.49 299.06 135.33 302.918C138.169 306.775 142.018 308.941 146.032 308.941H438.396C442.412 308.941 446.263 306.772 449.103 302.911C451.943 299.049 453.538 293.812 453.538 288.352V285.382C453.536 284.408 453.249 283.474 452.742 282.787C452.234 282.099 451.547 281.713 450.83 281.713ZM262.439 293.489L259.831 289.445H324.892L321.989 293.496L262.439 293.489Z" fill="url(#paint0_linear)"/>
<path d="M407.336 74.9776H178.158C172.045 74.9776 167.089 81.716 167.089 90.0282V272.156C167.089 280.468 172.045 287.206 178.158 287.206H407.336C413.449 287.206 418.405 280.468 418.405 272.156V90.0282C418.405 81.716 413.449 74.9776 407.336 74.9776Z" fill="#535461"/>
<path d="M412.58 105.914H172.376V279.293H412.58V105.914Z" fill="white"/>
<path d="M292.48 93.6841C293.65 93.6841 294.598 92.395 294.598 90.8047C294.598 89.2145 293.65 87.9253 292.48 87.9253C291.311 87.9253 290.363 89.2145 290.363 90.8047C290.363 92.395 291.311 93.6841 292.48 93.6841Z" fill="white"/>
<path d="M329.57 279.649L321.313 291.16H263.115L255.658 279.649H137.195C136.493 279.649 135.82 280.028 135.324 280.703C134.828 281.377 134.549 282.292 134.549 283.246V286.145C134.549 291.482 136.108 296.601 138.884 300.375C141.659 304.149 145.424 306.269 149.349 306.269H435.084C439.009 306.269 442.773 304.149 445.549 300.375C448.324 296.601 449.884 291.482 449.884 286.145V283.246C449.884 282.292 449.605 281.377 449.109 280.703C448.612 280.028 447.939 279.649 447.238 279.649H329.57Z" fill="#535461"/>
<path d="M247.178 112.009H145.851C143.389 112.005 141.028 113.331 139.285 115.695C137.542 118.059 136.561 121.267 136.557 124.614V315.496C136.561 318.843 137.542 322.051 139.285 324.415C141.028 326.778 143.389 328.104 145.851 328.101H247.178C249.639 328.104 252.001 326.778 253.744 324.415C255.487 322.051 256.468 318.843 256.471 315.496V124.614C256.468 121.267 255.487 118.059 253.744 115.695C252.001 113.331 249.639 112.005 247.178 112.009Z" fill="url(#paint1_linear)"/>
<path d="M245.526 114.597H147.498C142.241 114.597 137.98 120.391 137.98 127.538V313.244C137.98 320.391 142.241 326.185 147.498 326.185H245.526C250.783 326.185 255.044 320.391 255.044 313.244V127.538C255.044 120.391 250.783 114.597 245.526 114.597Z" fill="#535461"/>
<path d="M249.095 134.611H143.928V306.172H249.095V134.611Z" fill="white"/>
<path d="M196.036 126.244C196.825 126.244 197.464 125.375 197.464 124.303C197.464 123.231 196.825 122.362 196.036 122.362C195.248 122.362 194.609 123.231 194.609 124.303C194.609 125.375 195.248 126.244 196.036 126.244Z" fill="white"/>
<path d="M196.036 321.656C198.401 321.656 200.319 319.049 200.319 315.832C200.319 312.616 198.401 310.009 196.036 310.009C193.671 310.009 191.753 312.616 191.753 315.832C191.753 319.049 193.671 321.656 196.036 321.656Z" fill="white"/>
<path d="M169.944 176.715H117.918C117.242 176.713 116.573 176.892 115.948 177.242C115.324 177.592 114.756 178.106 114.277 178.754C113.799 179.403 113.419 180.173 113.159 181.021C112.899 181.869 112.765 182.778 112.764 183.696V338.615C112.765 339.534 112.899 340.443 113.159 341.291C113.419 342.139 113.799 342.909 114.277 343.558C114.756 344.206 115.324 344.72 115.948 345.07C116.573 345.42 117.242 345.599 117.918 345.597H169.944C170.62 345.599 171.289 345.42 171.914 345.07C172.538 344.72 173.106 344.206 173.584 343.558C174.063 342.909 174.443 342.139 174.703 341.291C174.962 340.443 175.097 339.534 175.098 338.615V183.696C175.097 182.778 174.962 181.869 174.703 181.021C174.443 180.173 174.063 179.403 173.584 178.754C173.106 178.106 172.538 177.592 171.914 177.242C171.289 176.892 170.62 176.713 169.944 176.715Z" fill="url(#paint2_linear)"/>
<path d="M169.387 178.009H118.47C115.579 178.009 113.235 181.195 113.235 185.126V337.832C113.235 341.763 115.579 344.95 118.47 344.95H169.387C172.278 344.95 174.622 341.763 174.622 337.832V185.126C174.622 181.195 172.278 178.009 169.387 178.009Z" fill="#535461"/>
<path d="M170.101 193.538H117.756V329.421H170.101V193.538Z" fill="white"/>
<path d="M137.742 186.421C138.005 186.421 138.218 186.131 138.218 185.774C138.218 185.416 138.005 185.126 137.742 185.126C137.479 185.126 137.266 185.416 137.266 185.774C137.266 186.131 137.479 186.421 137.742 186.421Z" fill="white"/>
<path d="M150.115 185.126H140.597C140.335 185.126 140.122 185.416 140.122 185.774C140.122 186.131 140.335 186.421 140.597 186.421H150.115C150.378 186.421 150.591 186.131 150.591 185.774C150.591 185.416 150.378 185.126 150.115 185.126Z" fill="white"/>
<path d="M143.691 340.421C145.53 340.421 147.022 338.393 147.022 335.891C147.022 333.39 145.53 331.362 143.691 331.362C141.851 331.362 140.359 333.39 140.359 335.891C140.359 338.393 141.851 340.421 143.691 340.421Z" fill="white"/>
<path d="M106.949 356.985C106.949 356.985 100.639 327.868 108.134 306.424C111.324 297.461 112.289 287.332 110.884 277.559C110.189 272.929 109.184 268.396 107.881 264.016" stroke="#535461" stroke-width="2" stroke-miterlimit="10"/>
<path d="M112.526 250.466C112.526 254.038 107.767 264.385 107.767 264.385C107.767 264.385 103.009 254.032 103.009 250.466C103.009 248.75 103.51 247.105 104.402 245.891C105.295 244.678 106.505 243.996 107.767 243.996C109.029 243.996 110.24 244.678 111.132 245.891C112.025 247.105 112.526 248.75 112.526 250.466Z" fill="#F9A826"/>
<path d="M120.402 270.241C118.974 273.237 110.846 278.413 110.846 278.413C110.846 278.413 110.994 266.209 112.421 263.214C112.746 262.459 113.18 261.801 113.697 261.281C114.213 260.76 114.802 260.387 115.428 260.185C116.054 259.983 116.703 259.955 117.337 260.103C117.971 260.252 118.576 260.573 119.116 261.049C119.655 261.524 120.119 262.143 120.478 262.869C120.837 263.595 121.084 264.412 121.204 265.271C121.324 266.13 121.315 267.013 121.177 267.868C121.039 268.722 120.775 269.529 120.402 270.241Z" fill="#F9A826"/>
<path d="M120.04 304.024C117.694 305.628 108.757 304.522 108.757 304.522C108.757 304.522 113.416 294.091 115.757 292.486C116.875 291.8 118.145 291.726 119.302 292.282C120.458 292.838 121.413 293.979 121.965 295.469C122.518 296.958 122.626 298.68 122.267 300.275C121.908 301.87 121.11 303.216 120.04 304.03V304.024Z" fill="#F9A826"/>
<path d="M115.548 329.511C113.435 331.634 104.488 332.591 104.488 332.591C104.488 332.591 107.782 321.242 109.894 319.119C110.911 318.197 112.15 317.842 113.353 318.128C114.557 318.413 115.634 319.318 116.361 320.654C117.088 321.99 117.409 323.655 117.257 325.304C117.106 326.953 116.494 328.459 115.548 329.511Z" fill="#F9A826"/>
<path d="M100.848 279.105C102.752 281.59 111.503 284.172 111.503 284.172C111.503 284.172 109.357 272.324 107.472 269.839C107.032 269.201 106.501 268.69 105.912 268.338C105.322 267.987 104.686 267.801 104.042 267.793C103.399 267.785 102.761 267.955 102.166 268.292C101.572 268.63 101.035 269.127 100.586 269.755C100.138 270.383 99.7875 271.128 99.5568 271.945C99.3262 272.763 99.2199 273.635 99.2444 274.51C99.2688 275.384 99.4236 276.243 99.6993 277.034C99.9749 277.825 100.366 278.532 100.848 279.112V279.105Z" fill="#F9A826"/>
<path d="M95.8705 308.999C98.2166 310.604 107.153 309.498 107.153 309.498C107.153 309.498 102.495 299.067 100.153 297.462C99.593 297.036 98.975 296.768 98.3365 296.675C97.6981 296.582 97.0524 296.666 96.4384 296.921C95.8244 297.177 95.2547 297.598 94.7637 298.161C94.2727 298.723 93.8704 299.415 93.5812 300.195C93.292 300.974 93.1218 301.825 93.0809 302.697C93.0399 303.568 93.1291 304.441 93.343 305.265C93.5568 306.088 93.891 306.844 94.3254 307.487C94.7598 308.13 95.2854 308.646 95.8705 309.006V308.999Z" fill="#F9A826"/>
<path d="M93.967 338.958C96.0799 341.081 105.026 342.038 105.026 342.038C105.026 342.038 101.733 330.689 99.6203 328.566C98.6037 327.644 97.3651 327.289 96.1612 327.575C94.9573 327.861 93.8804 328.765 93.1536 330.101C92.4268 331.437 92.1059 333.102 92.2573 334.751C92.4088 336.4 93.021 337.906 93.967 338.958Z" fill="#F9A826"/>
<path d="M483.489 264.359C478.222 255.669 471.84 245.685 472.735 234.122C473.458 224.759 471.726 216.101 472.069 206.706C472.544 193.357 470.574 182.907 463.503 174.353C459.372 169.351 452.467 165.424 450.412 166.426C446.338 168.406 441.894 167.649 437.701 169.015C434.518 170.024 432.4 171.603 431.087 173.544C428.446 176.779 428.403 181.309 429.607 186.129C428.556 188.746 427.922 191.634 427.745 194.605C427.569 197.577 427.854 200.566 428.582 203.378C429.311 206.19 430.466 208.762 431.973 210.927C433.48 213.092 435.305 214.802 437.33 215.946C434.394 217.615 431.858 221.459 430.868 229.262C430.18 234.621 429.14 239.886 427.76 244.992C427.14 245.386 426.505 245.734 425.857 246.034C426 246.112 426.147 246.164 426.29 246.235C425.981 246.396 425.676 246.558 425.338 246.701C425.901 246.999 426.482 247.229 427.075 247.386C423.268 260.464 418.51 268.565 418.51 268.565C418.51 268.565 409.635 271.231 406.184 266.565C406.184 266.565 406.746 267.458 407.507 268.798C404.134 266.895 398.594 263.789 393.86 261.234C390.424 259.376 389.543 261.234 389.577 263.822C388.738 263.965 387.929 264.334 387.197 264.909C386.182 264.021 385.118 263.242 384.014 262.579C382.044 261.932 375.634 257.248 369.224 273.236C365.493 282.535 355.928 299.507 348.576 312.06C334.276 321.002 315.66 332.326 308.741 335.173H304.306C303.725 333.879 303.321 333.064 303.321 333.064L302.978 333.374L302.831 333.064C302.831 333.064 294.122 341.262 285.281 341.326C284.023 341.303 282.771 341.086 281.55 340.679C277.486 339.288 274.621 338.667 272.575 338.738C270.153 338.68 268.768 339.463 267.93 340.938C267.818 341.132 267.714 341.335 267.621 341.546C267.527 341.756 267.442 341.972 267.364 342.194C267.288 342.426 267.212 342.672 267.145 342.925C267.118 343.15 267.128 343.38 267.176 343.599C267.224 343.818 267.308 344.018 267.421 344.186C267.54 344.413 267.668 344.629 267.807 344.834L268.054 345.196C269.168 346.762 271.195 348.839 273.717 351.155C274.445 351.802 275.216 352.514 276.02 353.219L277.548 354.514L278.913 355.672L279.461 356.131L280.07 356.636L281.16 357.535L281.807 358.066L283.03 359.056L284.019 359.852C286.608 361.929 289.187 363.941 291.514 365.727L293.142 367.047L293.299 367.164L294.346 367.959L296.154 369.325L297.396 370.256L297.977 370.69L298.6 371.156L298.724 371.246L299.809 372.049C300.032 372.1 300.261 372.085 300.479 372.004C300.698 371.924 300.901 371.78 301.075 371.583C301.389 369.771 302.155 365.889 302.978 365.591C303.801 365.294 307.366 356.824 308.37 351.155H317.992C319.887 350.935 321.769 350.542 323.626 349.978C321.142 352.385 318.682 353.899 316.769 353.252C312.724 351.886 308.893 355.238 308.508 358.545C308.508 358.616 308.474 358.681 308.46 358.752C308.446 358.823 308.436 358.888 308.427 358.952C308.417 359.017 308.398 359.114 308.389 359.198C308.379 359.282 308.389 359.334 308.389 359.405C308.389 359.476 308.389 359.567 308.389 359.651C308.389 359.735 308.389 359.787 308.389 359.852C308.389 359.916 308.389 360.02 308.389 360.104C308.389 360.188 308.389 360.234 308.389 360.298C308.389 360.363 308.417 360.473 308.436 360.564C308.455 360.654 308.436 360.68 308.47 360.732C308.5 360.849 308.535 360.963 308.574 361.075L308.598 361.159C308.651 361.3 308.712 361.436 308.779 361.566L308.855 361.702C308.903 361.793 308.955 361.884 309.012 361.968L309.122 362.116C309.179 362.194 309.241 362.272 309.302 362.349L309.436 362.498L309.65 362.712L309.807 362.854L310.064 363.061L310.235 363.184L310.559 363.391L310.72 363.488C310.892 363.585 311.073 363.676 311.268 363.76C311.577 363.896 311.943 364.038 312.357 364.181L312.771 364.316L313.376 364.504L313.695 364.601C314.107 364.722 314.545 364.843 315.008 364.964L315.65 365.125L316.174 365.255L317.378 365.539C318.13 365.714 318.915 365.889 319.757 366.057L321.832 366.484L324.535 367.008L325.135 367.118L326.086 367.299L327.481 367.552L328.432 367.72L330.902 368.147L331.673 368.276L333.229 368.535C335.275 368.872 337.255 369.182 339.078 369.461L341.186 369.784L342.252 369.946L342.727 370.011L344.003 370.198L344.712 370.302L345.587 370.425L346.82 370.599H346.953L347.743 370.709C347.842 370.724 347.942 370.71 348.037 370.669C348.132 370.628 348.219 370.561 348.294 370.471C348.369 370.382 348.429 370.272 348.471 370.15C348.513 370.027 348.536 369.894 348.538 369.758C348.538 369.726 348.538 369.687 348.538 369.648C348.61 369.498 348.65 369.323 348.652 369.144C348.673 367.548 348.821 365.959 349.095 364.407C349.147 364.142 349.209 363.87 349.275 363.598L349.352 363.288C349.437 362.958 349.523 362.641 349.623 362.285C349.694 362.044 349.756 361.797 349.808 361.547C349.808 361.469 349.842 361.392 349.861 361.308C349.88 361.224 349.908 361.042 349.927 360.906C350.917 356.306 349.723 347.726 349.38 344.355C349.27 343.278 349.089 342.217 348.838 341.184C348.899 341.192 348.961 341.192 349.023 341.184C349.534 340.929 350.015 340.573 350.451 340.129C357.722 336.603 363.851 332.572 365.788 328.534C368.925 327.408 372.256 327.882 375.153 329.867C378.917 332.41 407.393 345.047 420.651 350.884C423.03 353.672 424.896 355.303 425.928 355.18C425.928 355.18 442.807 358.894 449.593 351.647C450.198 352.216 450.578 352.521 450.578 352.521C450.578 352.521 460.438 345.862 461.918 337.198C462.394 334.39 462.827 330.249 463.27 325.668C465.557 322.534 466.843 318.3 466.848 313.885C467.158 299.339 471.302 282.722 474.376 267.944C478.107 268.345 479.549 267.387 482.971 265.09L482.818 264.825C483.061 264.631 483.275 264.501 483.489 264.359ZM426.961 286.145L425.057 285.285C425.696 284.126 426.246 282.881 426.699 281.571L426.961 286.145ZM416.354 292.266L427.775 301.584L427.875 303.48C427.735 304.923 427.768 306.386 427.97 307.815C422.935 301.733 417.044 294.35 416.349 292.26L416.354 292.266ZM411.69 278.678C410.444 277.979 409.411 277.345 408.702 276.821C409.654 276.912 410.558 276.989 411.348 277.048C411.504 277.573 411.619 278.12 411.69 278.678ZM381.101 293.865C381.101 293.865 383.072 287.873 387.511 297.864C388.201 299.416 389.472 301.888 391.152 304.949L378.227 302.6C379.75 299.391 380.773 296.408 381.101 293.871V293.865Z" fill="url(#paint3_linear)"/>
<path d="M409.492 269.794C409.492 269.794 400.45 264.618 393.312 260.735C386.174 256.853 390.457 269.794 390.457 269.794C390.457 269.794 402.354 274.324 402.354 274.971C402.354 275.618 412.347 276.265 412.347 276.265L409.492 269.794Z" fill="#F7C4A7"/>
<path opacity="0.05" d="M409.492 269.794C409.492 269.794 400.45 264.618 393.312 260.735C386.174 256.853 390.457 269.794 390.457 269.794C390.457 269.794 402.354 274.324 402.354 274.971C402.354 275.618 412.347 276.265 412.347 276.265L409.492 269.794Z" fill="black"/>
<path d="M448.037 218.676C448.037 218.676 431.858 207.029 429.002 229.676C426.147 252.324 417.106 267.853 417.106 267.853C417.106 267.853 408.54 270.441 405.209 265.912C405.209 265.912 413.299 278.853 409.492 280.147C409.492 280.147 418.057 288.559 421.864 285.971C425.671 283.382 428.527 265.912 429.954 261.382C431.382 256.853 436.616 217.382 448.037 218.676Z" fill="#575988"/>
<path opacity="0.1" d="M448.037 218.676C448.037 218.676 431.858 207.029 429.002 229.676C426.147 252.324 417.106 267.853 417.106 267.853C417.106 267.853 408.54 270.441 405.209 265.912C405.209 265.912 413.299 278.853 409.492 280.147C409.492 280.147 418.057 288.559 421.864 285.971C425.671 283.382 428.527 265.912 429.954 261.382C431.382 256.853 436.616 217.382 448.037 218.676Z" fill="black"/>
<path d="M438.996 210.912C438.996 210.912 448.989 226.441 449.465 239.382C449.941 252.324 460.886 225.794 461.837 225.147C462.789 224.5 452.32 202.5 451.368 195.382C450.417 188.265 438.996 210.912 438.996 210.912Z" fill="#F7C4A7"/>
<path d="M445.896 217.544L439.591 225.309L442.565 241.647L450.654 231.294L449.703 220.941L445.896 217.544Z" fill="#F7C4A7"/>
<path d="M314.318 332.559H303.373L307.656 346.794L318.125 342.912L314.318 332.559Z" fill="#F7C4A7"/>
<path opacity="0.1" d="M305.905 330.508C305.905 330.508 294.57 341.242 284.886 337.904C275.202 334.565 272.57 335.814 271.442 340.123C270.4 344.089 298.491 365.067 302.969 368.38C303.038 368.432 303.115 368.461 303.194 368.465C303.274 368.47 303.352 368.449 303.425 368.405C303.497 368.361 303.561 368.295 303.611 368.213C303.662 368.13 303.698 368.032 303.716 367.927C304.02 366.167 304.758 362.395 305.548 362.103C306.576 361.728 311.258 349.809 311.001 345.125C310.744 340.44 305.905 330.508 305.905 330.508Z" fill="black"/>
<path d="M305.429 330.508C305.429 330.508 294.094 341.242 284.41 337.904C274.726 334.565 272.094 335.814 270.966 340.123C269.924 344.089 298.015 365.067 302.493 368.38C302.562 368.432 302.639 368.461 302.719 368.465C302.798 368.47 302.877 368.449 302.949 368.405C303.021 368.361 303.085 368.295 303.136 368.213C303.186 368.13 303.222 368.032 303.24 367.927C303.544 366.167 304.282 362.395 305.072 362.103C306.1 361.728 310.782 349.809 310.525 345.125C310.268 340.44 305.429 330.508 305.429 330.508Z" fill="#F3B5B7"/>
<path d="M399.023 304.735L367.139 298.912C367.139 298.912 315.27 332.559 309.083 333.206L310.511 348.088H320.028C323.835 348.088 360.953 337.088 366.188 326.088C369.216 324.993 372.435 325.454 375.229 327.382C379.988 330.618 425.671 350.676 425.671 350.676L399.023 304.735Z" fill="#575988"/>
<path opacity="0.1" d="M399.023 304.735L367.139 298.912C367.139 298.912 315.27 332.559 309.083 333.206L310.511 348.088H320.028C323.835 348.088 360.953 337.088 366.188 326.088C369.216 324.993 372.435 325.454 375.229 327.382C379.988 330.618 425.671 350.676 425.671 350.676L399.023 304.735Z" fill="black"/>
<path d="M342.394 324.794L337.16 333.853L342.394 337.735L350.008 329.971L342.394 324.794Z" fill="#F7C4A7"/>
<path d="M433.285 314.441C433.285 314.441 416.154 294.499 414.969 290.882C413.784 287.265 385.698 262.676 383.795 262.029C381.891 261.382 375.705 256.853 369.519 272.382C363.333 287.912 340.491 325.441 340.491 325.441C340.491 325.441 347.629 339.029 350.008 338.382C352.388 337.735 379.036 307.324 380.94 292.441C380.94 292.441 382.843 286.618 387.126 296.324C391.409 306.029 419.009 352.618 424.244 351.971C424.244 351.971 444.706 356.5 448.989 345.5C453.272 334.5 433.285 314.441 433.285 314.441Z" fill="#575988"/>
<path d="M443.041 219.647C443.041 219.647 437.092 223.206 436.616 238.088C436.14 252.971 425.671 278.206 425.671 278.206L426.623 307.971C426.623 307.971 438.044 323.5 438.996 333.206C439.947 342.912 448.037 349.382 448.037 349.382C448.037 349.382 457.555 342.912 458.982 334.5C460.41 326.088 461.362 305.382 463.741 297.618C466.12 289.853 464.693 241.324 464.693 241.324L457.555 224.5L453.748 218.676L443.754 234.206C443.754 234.206 438.282 224.176 443.041 219.647Z" fill="#DDDBE2"/>
<path opacity="0.1" d="M429.002 298.265C429.002 298.265 427.575 274.971 431.858 269.794L440.423 236.794C440.423 236.794 443.516 220.941 443.041 219.647C442.565 218.353 431.858 232.265 431.858 232.265L424.72 266.559L426.623 302.794L429.002 298.265Z" fill="black"/>
<path d="M428.527 298.265C428.527 298.265 427.099 274.971 431.382 269.794L439.947 236.794C439.947 236.794 443.278 220.618 442.803 219.324C442.327 218.029 431.382 232.265 431.382 232.265L424.244 266.559L426.147 302.794L428.527 298.265Z" fill="#575988"/>
<path d="M431.858 287.912C431.858 287.912 408.064 277.559 406.637 274.971C405.209 272.382 389.981 255.559 384.747 267.206C379.512 278.853 404.257 282.088 404.257 282.088L429.478 302.794L431.858 287.912Z" fill="#F7C4A7"/>
<path opacity="0.1" d="M343.427 333.795L336.384 332.074C336.384 332.074 324.849 352.165 318.839 350.126C312.829 348.088 307.299 356.882 313.647 359.703C319.381 362.252 344.146 365.818 348.861 366.478C348.957 366.491 349.053 366.478 349.145 366.438C349.236 366.398 349.321 366.333 349.393 366.246C349.464 366.16 349.523 366.054 349.563 365.936C349.603 365.818 349.625 365.689 349.628 365.559C349.664 363.058 350.035 360.587 350.722 358.266C351.993 354.028 350.722 344.924 350.37 341.443C350.176 339.402 349.706 337.428 348.985 335.619L343.427 333.795Z" fill="black"/>
<path d="M343.308 334.422L336.265 332.701C336.265 332.701 324.73 352.792 318.729 350.761C312.729 348.729 307.19 357.516 313.538 360.337C319.272 362.886 344.036 366.452 348.752 367.112C348.847 367.125 348.944 367.112 349.035 367.072C349.127 367.032 349.211 366.967 349.283 366.881C349.355 366.794 349.413 366.689 349.454 366.57C349.494 366.452 349.516 366.323 349.518 366.193C349.541 363.698 349.898 361.229 350.57 358.907C351.84 354.669 350.57 345.565 350.218 342.083C350.024 340.043 349.554 338.069 348.833 336.26L343.308 334.422Z" fill="#F3B5B7"/>
<path opacity="0.1" d="M442.565 218.353C450.975 218.353 457.792 209.083 457.792 197.647C457.792 186.212 450.975 176.941 442.565 176.941C434.155 176.941 427.337 186.212 427.337 197.647C427.337 209.083 434.155 218.353 442.565 218.353Z" fill="black"/>
<path d="M441.137 218.353C449.547 218.353 456.365 209.083 456.365 197.647C456.365 186.212 449.547 176.941 441.137 176.941C432.727 176.941 425.909 186.212 425.909 197.647C425.909 209.083 432.727 218.353 441.137 218.353Z" fill="#F7C4A7"/>
<path d="M456.127 218.029C456.127 218.029 474.21 226.441 474.21 243.912C474.21 261.382 464.217 289.206 463.741 311.853C463.265 334.5 437.092 331.265 437.092 331.265C437.092 331.265 433.285 254.912 437.092 249.088C440.899 243.265 458.03 220.618 456.127 218.029Z" fill="#575988"/>
<path opacity="0.1" d="M452.796 254.265C452.796 254.265 446.134 294.382 430.43 287.265C430.43 287.265 422.34 303.441 428.051 310.559C428.051 310.559 441.851 315.088 450.892 302.794C459.934 290.5 466.596 285.971 468.024 271.088C469.451 256.206 470.403 235.5 465.644 237.441C460.886 239.382 452.796 254.265 452.796 254.265Z" fill="black"/>
<path d="M453.272 253.618C453.272 253.618 446.61 293.735 430.906 286.618C430.906 286.618 422.816 302.794 428.527 309.912C428.527 309.912 442.327 314.441 451.368 302.147C460.41 289.853 467.072 285.324 468.499 270.441C469.927 255.559 470.879 234.853 466.12 236.794C461.361 238.735 453.272 253.618 453.272 253.618Z" fill="#575988"/>
<path d="M350.979 356.824C350.979 356.882 350.95 356.953 350.936 357.005C350.608 358.111 350.358 359.257 350.189 360.428C350.303 359.923 350.436 359.405 350.589 358.888C350.776 358.222 350.907 357.529 350.979 356.824Z" fill="#DDDBE2"/>
<path d="M313.885 358.448C311.924 357.574 311.101 356.138 311.068 354.624C310.259 356.733 310.768 359.101 313.538 360.331C319.272 362.88 344.041 366.445 348.752 367.105C348.848 367.119 348.945 367.105 349.036 367.065C349.128 367.025 349.213 366.959 349.285 366.872C349.357 366.785 349.415 366.678 349.455 366.559C349.495 366.44 349.517 366.311 349.518 366.18C349.521 365.942 349.459 365.712 349.344 365.533C349.229 365.355 349.068 365.242 348.895 365.216C343.727 364.465 319.543 360.958 313.885 358.448Z" fill="#DDDBE2"/>
<path d="M271.623 338.984C271.749 338.507 271.909 338.048 272.099 337.612C271.586 338.318 271.203 339.178 270.981 340.123C269.939 344.089 298.029 365.067 302.507 368.38C302.577 368.432 302.654 368.461 302.734 368.465C302.813 368.469 302.892 368.448 302.965 368.403C303.037 368.359 303.101 368.292 303.151 368.208C303.201 368.124 303.237 368.026 303.254 367.921C303.281 367.771 303.27 367.615 303.225 367.474C303.179 367.334 303.101 367.218 303.002 367.144C298.053 363.462 270.595 342.905 271.623 338.984Z" fill="#DDDBE2"/>
<path d="M305.724 360.971C305.472 361.062 305.224 361.521 304.991 362.149L305.067 362.11C305.277 362.032 305.633 361.463 306.066 360.622C305.974 360.773 305.857 360.893 305.724 360.971Z" fill="#DDDBE2"/>
<path opacity="0.1" d="M439.024 215.875C437.682 219.899 437.402 224.435 436.416 228.654C434.461 237.021 429.554 243.944 423.677 246.616C428.622 249.295 434.456 246.021 438.277 240.586C442.098 235.151 444.34 227.916 446.486 220.876C452.034 225.949 451.359 237.609 453.224 246.688C454.025 250.637 455.439 254.307 457.373 257.45C459.306 260.592 461.713 263.134 464.431 264.902C467.139 266.555 470.084 267.37 473.052 267.288C476.02 267.206 478.938 266.23 481.595 264.43C476.508 256.018 469.266 244.416 470.127 233.184C470.827 224.086 466.025 217.136 466.353 208.006C466.829 195.065 463.184 188.491 456.36 180.183C452.372 175.324 458.649 168.471 453.505 170.477C451.482 171.266 449.351 168.322 447.366 169.293C443.436 171.234 439.143 170.484 435.098 171.778C414.074 178.494 440.985 209.999 439.024 215.875Z" fill="black"/>
<path d="M439.5 215.228C438.158 219.252 437.877 223.788 436.892 228.007C434.937 236.374 430.03 243.297 424.153 245.969C429.098 248.648 434.932 245.374 438.753 239.939C442.574 234.504 444.816 227.269 446.962 220.229C452.51 225.302 451.835 236.962 453.7 246.041C454.501 249.99 455.915 253.66 457.849 256.803C459.782 259.945 462.189 262.487 464.907 264.255C467.615 265.908 470.56 266.723 473.528 266.641C476.496 266.559 479.414 265.583 482.071 263.783C476.984 255.371 470.217 245.711 471.079 234.478C471.778 225.38 470.736 216.03 471.079 206.906C471.555 193.965 466.886 181.464 460.058 173.156C456.07 168.296 449.841 167.675 447.852 168.626C443.921 170.568 439.629 169.817 435.584 171.111C414.55 177.847 441.461 209.352 439.5 215.228Z" fill="#FC6681"/>
</g>
<defs>
<linearGradient id="paint0_linear" x1="292.214" y1="308.954" x2="292.214" y2="72.2924" gradientUnits="userSpaceOnUse">
<stop stop-color="#808080" stop-opacity="0.25"/>
<stop offset="0.54" stop-color="#808080" stop-opacity="0.12"/>
<stop offset="1" stop-color="#808080" stop-opacity="0.1"/>
</linearGradient>
<linearGradient id="paint1_linear" x1="56968.7" y1="137471" x2="56968.7" y2="65296.1" gradientUnits="userSpaceOnUse">
<stop stop-color="#808080" stop-opacity="0.25"/>
<stop offset="0.54" stop-color="#808080" stop-opacity="0.12"/>
<stop offset="1" stop-color="#808080" stop-opacity="0.1"/>
</linearGradient>
<linearGradient id="paint2_linear" x1="22767.5" y1="112087" x2="22767.5" y2="68008.3" gradientUnits="userSpaceOnUse">
<stop stop-color="#808080" stop-opacity="0.25"/>
<stop offset="0.54" stop-color="#808080" stop-opacity="0.12"/>
<stop offset="1" stop-color="#808080" stop-opacity="0.1"/>
</linearGradient>
<linearGradient id="paint3_linear" x1="184103" y1="144986" x2="184103" y2="79505.7" gradientUnits="userSpaceOnUse">
<stop stop-color="#808080" stop-opacity="0.25"/>
<stop offset="0.54" stop-color="#808080" stop-opacity="0.12"/>
<stop offset="1" stop-color="#808080" stop-opacity="0.1"/>
</linearGradient>
<clipPath id="clip0">
<rect width="493" height="396" fill="white" transform="translate(10 10)"/>
</clipPath>
</defs>
</svg>
